<svg width="18" height="20" viewBox="0 0 18 20" fill="none" xmlns="http://www.w3.org/2000/svg">
<path id="Vector" d="M9.96893 0.229614C10.8939 0.229614 11.7484 0.299622 12.5325 0.509647C13.3165 0.649663 13.9596 0.938447 14.5323 1.28849C15.1049 1.63853 15.5277 2.13734 15.8184 2.77616C16.1003 3.41499 16.2501 4.19383 16.2501 5.04268C16.2501 6.03154 16.0387 6.88039 15.5365 7.51921C15.1049 8.15804 14.4001 8.72686 13.5368 9.1469C14.7525 9.49695 15.6775 10.1358 16.2413 10.9846C16.8051 11.8335 17.1663 12.8923 17.1663 14.1C17.1663 15.0888 16.9549 15.9377 16.5937 16.6465C16.2413 17.3554 15.6687 17.9942 15.0256 18.4142C14.3825 18.843 13.5984 19.1931 12.7439 19.4031C11.8894 19.6131 11.0349 19.7531 10.1804 19.7531L0.630859 19.7706V0.229614H9.96893ZM9.39631 8.15804C10.1804 8.15804 10.8235 7.94801 11.3168 7.58922C11.8101 7.23043 12.0304 6.60036 12.0304 5.82152C12.0304 5.39272 11.9599 4.97267 11.8189 4.69263C11.678 4.4126 11.4665 4.19383 11.1758 3.9838C10.8939 3.84379 10.6032 3.70377 10.2508 3.63376C9.89845 3.56375 9.53726 3.56375 9.11441 3.56375H4.98275V8.16679C4.98275 8.15804 9.39631 8.15804 9.39631 8.15804ZM9.60774 16.5153C10.0394 16.5153 10.4623 16.4453 10.8235 16.3752C11.1758 16.3052 11.537 16.1652 11.8189 15.9464C12.1008 15.7277 12.3211 15.5176 12.5325 15.1676C12.6734 14.8176 12.8144 14.3888 12.8144 13.89C12.8144 12.9011 12.5325 12.1923 11.9599 11.6935C11.3873 11.2647 10.6032 11.0546 9.67822 11.0546H4.98275V16.5065H9.60774V16.5153Z" fill="white"/>
</svg>
