<svg width="24" height="24" viewBox="0 0 24 24" fill="none" xmlns="http://www.w3.org/2000/svg">
<path id="Vector" d="M23.3863 2.1612V21.8391C23.3863 22.289 23.2075 22.7204 22.8894 23.0386C22.5713 23.3567 22.1398 23.5354 21.6899 23.5354H2.01204C1.56214 23.5354 1.13066 23.3567 0.812528 23.0386C0.494398 22.7204 0.315674 22.289 0.315674 21.8391L0.315674 2.1612C0.315674 1.71129 0.494398 1.27981 0.812528 0.961683C1.13066 0.643552 1.56214 0.464828 2.01204 0.464828L21.6899 0.464828C22.1398 0.464828 22.5713 0.643552 22.8894 0.961683C23.2075 1.27981 23.3863 1.71129 23.3863 2.1612V2.1612ZM7.10114 9.28594H3.70841V20.1427H7.10114V9.28594ZM7.40649 5.55393C7.40828 5.2973 7.3595 5.04283 7.26294 4.80504C7.16638 4.56726 7.02393 4.35083 6.84372 4.1681C6.66352 3.98538 6.44908 3.83993 6.21267 3.74008C5.97625 3.64023 5.72248 3.58792 5.46585 3.58614H5.40478C4.88289 3.58614 4.38237 3.79346 4.01334 4.1625C3.64431 4.53153 3.43699 5.03204 3.43699 5.55393C3.43699 6.07582 3.64431 6.57633 4.01334 6.94537C4.38237 7.3144 4.88289 7.52172 5.40478 7.52172V7.52172C5.66143 7.52803 5.91681 7.48371 6.15632 7.39129C6.39584 7.29888 6.6148 7.16017 6.80069 6.9831C6.98658 6.80603 7.13576 6.59407 7.23971 6.35932C7.34365 6.12458 7.40033 5.87165 7.40649 5.615V5.55393ZM19.9935 13.5472C19.9935 10.2834 17.9172 9.01452 15.8544 9.01452C15.179 8.9807 14.5065 9.12455 13.9041 9.43173C13.3016 9.73891 12.7903 10.1987 12.421 10.7652H12.326V9.28594H9.13678V20.1427H12.5295V14.3683C12.4805 13.7769 12.6668 13.19 13.0479 12.7351C13.4291 12.2803 13.9743 11.9942 14.5652 11.9391H14.6941C15.773 11.9391 16.5737 12.6176 16.5737 14.3275V20.1427H19.9664L19.9935 13.5472Z" fill="white"/>
</svg>
