<svg width="18" height="26" viewBox="0 0 18 26" fill="none" xmlns="http://www.w3.org/2000/svg">
<g id="figma_logo">
<path id="Vector" d="M8.92114 12.9998C8.92114 11.9389 9.34257 10.9215 10.0927 10.1714C10.8429 9.4212 11.8603 8.99977 12.9212 8.99977C13.9821 8.99977 14.9995 9.4212 15.7496 10.1714C16.4998 10.9215 16.9212 11.9389 16.9212 12.9998C16.9212 14.0607 16.4998 15.0781 15.7496 15.8283C14.9995 16.5784 13.9821 16.9999 12.9212 16.9999C11.8603 16.9999 10.8429 16.5784 10.0927 15.8283C9.34257 15.0781 8.92114 14.0607 8.92114 12.9998V12.9998Z" stroke="white" stroke-width="1.12001"/>
<path id="Vector_2" d="M0.921143 21.0001C0.921143 19.9393 1.34257 18.9218 2.09273 18.1717C2.84288 17.4215 3.86031 17.0001 4.92118 17.0001H8.92122V21.0001C8.92122 22.061 8.49979 23.0784 7.74964 23.8286C6.99949 24.5787 5.98206 25.0002 4.92118 25.0002C3.86031 25.0002 2.84288 24.5787 2.09273 23.8286C1.34257 23.0784 0.921143 22.061 0.921143 21.0001Z" stroke="white" stroke-width="1.12001"/>
<path id="Vector_3" d="M8.92114 1V9.00008H12.9212C13.9821 9.00008 14.9995 8.57865 15.7496 7.8285C16.4998 7.07834 16.9212 6.06092 16.9212 5.00004C16.9212 3.93916 16.4998 2.92174 15.7496 2.17158C14.9995 1.42143 13.9821 1 12.9212 1L8.92114 1Z" stroke="white" stroke-width="1.12001"/>
<path id="Vector_4" d="M0.921143 5.00004C0.921143 6.06092 1.34257 7.07834 2.09273 7.8285C2.84288 8.57865 3.86031 9.00008 4.92118 9.00008H8.92122V1H4.92118C3.86031 1 2.84288 1.42143 2.09273 2.17158C1.34257 2.92174 0.921143 3.93916 0.921143 5.00004Z" stroke="white" stroke-width="1.12001"/>
<path id="Vector_5" d="M0.921143 12.9998C0.921143 14.0607 1.34257 15.0781 2.09273 15.8283C2.84288 16.5784 3.86031 16.9999 4.92118 16.9999H8.92122V8.99977H4.92118C3.86031 8.99977 2.84288 9.4212 2.09273 10.1714C1.34257 10.9215 0.921143 11.9389 0.921143 12.9998Z" stroke="white" stroke-width="1.12001"/>
</g>
</svg>
